<svg xmlns="http://www.w3.org/2000/svg" width="413.2" height="280.733" viewBox="0 0 413.2 280.733">
  <g id="Development-pana" transform="translate(-73 -74.54)">
    <g id="Floor--inject-34" transform="translate(73 354.336)">
      <path id="Path_346" data-name="Path 346" d="M486.2,466.116c0,.107-92.52.186-206.6.186S73,466.223,73,466.116s92.5-.186,206.636-.186S486.2,466.016,486.2,466.116Z" transform="translate(-73 -465.93)" fill="#263238"/>
    </g>
    <g id="Screens--inject-34" transform="translate(220.715 74.54)">
      <path id="Path_347" data-name="Path 347" d="M364.56,227.355H285.28l5.862-56.475h79.952Z" transform="translate(-281.241 -102.009)" fill="#263238"/>
      <path id="Path_348" data-name="Path 348" d="M358.917,227.355H279.63l5.862-56.475h79.952Z" transform="translate(-279.63 -102.009)" fill="#455a64"/>
      <path id="Path_349" data-name="Path 349" d="M357.078,225.4H283.51l5.44-52.4h74.19Z" transform="translate(-280.736 -102.613)" fill="#f5f5f5"/>
      <path id="Path_350" data-name="Path 350" d="M294.666,220.049c-.107,0,.622-7.9,1.63-17.607s1.894-17.586,1.995-17.572-.622,7.864-1.63,17.607S294.766,220.056,294.666,220.049Z" transform="translate(-283.914 -105.997)" fill="#263238"/>
      <path id="Path_351" data-name="Path 351" d="M310.455,187.246a36.765,36.765,0,0,1-7.385,0A36.769,36.769,0,0,1,310.455,187.246Z" transform="translate(-286.313 -106.622)" fill="#263238"/>
      <path id="Path_352" data-name="Path 352" d="M345.627,187.246c0,.1-6.584.186-14.712.186s-14.705-.086-14.705-.186,6.584-.186,14.705-.186S345.627,187.146,345.627,187.246Z" transform="translate(-290.06 -106.622)" fill="#006562"/>
      <path id="Path_353" data-name="Path 353" d="M309.242,213.3a36.836,36.836,0,0,1-7.392,0A36.838,36.838,0,0,1,309.242,213.3Z" transform="translate(-285.965 -114.049)" fill="#263238"/>
      <path id="Path_354" data-name="Path 354" d="M344.407,213.3c0,.107-6.584.186-14.705.186s-14.712-.079-14.712-.186,6.584-.186,14.712-.186S344.407,213.2,344.407,213.3Z" transform="translate(-289.712 -114.049)" fill="#006562"/>
      <path id="Path_355" data-name="Path 355" d="M330.387,225.306c0,.1-6.584.186-14.705.186s-14.712-.086-14.712-.186,6.584-.186,14.712-.186S330.387,225.206,330.387,225.306Z" transform="translate(-285.714 -117.474)" fill="#006562"/>
      <path id="Path_356" data-name="Path 356" d="M313.854,194.587a70.069,70.069,0,0,1-10.394,0,72.76,72.76,0,0,1,10.394,0Z" transform="translate(-286.424 -108.709)" fill="#006562"/>
      <path id="Path_357" data-name="Path 357" d="M313.444,205.376a72.757,72.757,0,0,1-10.394,0,72.763,72.763,0,0,1,10.394,0Z" transform="translate(-286.308 -111.784)" fill="#006562"/>
      <path id="Path_358" data-name="Path 358" d="M325.734,220.786a72.754,72.754,0,0,1-10.394,0,72.76,72.76,0,0,1,10.394,0Z" transform="translate(-289.812 -116.178)" fill="#006562"/>
      <path id="Path_359" data-name="Path 359" d="M360.243,194.6c0,.107-5.941.193-13.268.193S333.7,194.7,333.7,194.6s5.941-.186,13.275-.186S360.243,194.5,360.243,194.6Z" transform="translate(-295.046 -108.717)" fill="#263238"/>
      <path id="Path_360" data-name="Path 360" d="M348.783,206.006c0,.107-5.941.186-13.268.186s-13.275-.079-13.275-.186,5.941-.186,13.275-.186S348.783,205.906,348.783,206.006Z" transform="translate(-291.779 -111.971)" fill="#263238"/>
      <path id="Path_361" data-name="Path 361" d="M361.558,220.8c0,.1-5.941.186-13.268.186S335,220.889,335,220.8s5.941-.186,13.275-.186S361.558,220.689,361.558,220.8Z" transform="translate(-295.417 -116.188)" fill="#263238"/>
      <path id="Path_362" data-name="Path 362" d="M327.661,234.006c0,.1-5.948.186-13.275.186s-13.275-.086-13.275-.186,5.948-.186,13.275-.186S327.661,233.9,327.661,234.006Z" transform="translate(-285.754 -119.954)" fill="#263238"/>
      <path id="Path_363" data-name="Path 363" d="M368.723,234.006c0,.1-5.941.186-13.268.186s-13.275-.086-13.275-.186,5.941-.186,13.275-.186S368.723,233.9,368.723,234.006Z" transform="translate(-297.464 -119.954)" fill="#263238"/>
      <path id="Path_364" data-name="Path 364" d="M327.653,238.3c0,.107-5.941.186-13.268.186s-13.275-.079-13.275-.186,5.941-.186,13.275-.186S327.653,238.2,327.653,238.3Z" transform="translate(-285.754 -121.177)" fill="#263238"/>
      <path id="Path_365" data-name="Path 365" d="M329.463,197.7c0,.1-5.941.186-13.268.186s-13.275-.086-13.275-.186,5.941-.186,13.275-.186S329.463,197.6,329.463,197.7Z" transform="translate(-286.27 -109.601)" fill="#263238"/>
      <path id="Path_366" data-name="Path 366" d="M327.421,194.643a31.569,31.569,0,0,1-6.841,0,30.409,30.409,0,0,1,6.841,0Z" transform="translate(-291.306 -108.729)" fill="#455a64"/>
      <path id="Path_367" data-name="Path 367" d="M308.274,216.836a31.505,31.505,0,0,1-6.834,0A31.505,31.505,0,0,1,308.274,216.836Z" transform="translate(-285.849 -115.059)" fill="#455a64"/>
      <path id="Path_368" data-name="Path 368" d="M308.014,220.8a31.507,31.507,0,0,1-6.834,0A31.505,31.505,0,0,1,308.014,220.8Z" transform="translate(-285.774 -116.188)" fill="#455a64"/>
      <path id="Path_369" data-name="Path 369" d="M364.134,180.753c0,.1-16.542.186-36.952.186s-36.952-.086-36.952-.186,16.542-.193,36.952-.193S364.134,180.646,364.134,180.753Z" transform="translate(-282.652 -104.769)" fill="#263238"/>
      <path id="Path_370" data-name="Path 370" d="M297.729,176.979a.872.872,0,1,1-.253-.621A.879.879,0,0,1,297.729,176.979Z" transform="translate(-284.289 -103.497)" fill="#fff"/>
      <path id="Path_371" data-name="Path 371" d="M302.989,176.979a.872.872,0,1,1-.253-.621A.879.879,0,0,1,302.989,176.979Z" transform="translate(-285.789 -103.497)" fill="#fff"/>
      <path id="Path_372" data-name="Path 372" d="M308.3,176.979a.872.872,0,1,1-.253-.621A.879.879,0,0,1,308.3,176.979Z" transform="translate(-287.303 -103.497)" fill="#fff"/>
      <path id="Path_373" data-name="Path 373" d="M508.608,228.584h-83.4l6.162-59.414h84.113Z" transform="translate(-321.138 -101.521)" fill="#263238"/>
      <path id="Path_374" data-name="Path 374" d="M502.668,228.584h-83.4l6.169-59.414h84.106Z" transform="translate(-319.444 -101.521)" fill="#455a64"/>
      <path id="Path_375" data-name="Path 375" d="M500.746,226.524H423.36l5.719-55.124h78.043Z" transform="translate(-320.61 -102.157)" fill="#ebebeb"/>
      <path id="Path_376" data-name="Path 376" d="M435.147,219.732c-.1,0,.672-8.307,1.723-18.523s1.995-18.494,2.095-18.48-.672,8.3-1.723,18.523S435.247,219.739,435.147,219.732Z" transform="translate(-323.969 -105.387)" fill="#263238"/>
      <path id="Path_377" data-name="Path 377" d="M451.761,185.233a40.7,40.7,0,0,1-7.771,0A39.2,39.2,0,0,1,451.761,185.233Z" transform="translate(-326.493 -106.046)" fill="#263238"/>
      <path id="Path_378" data-name="Path 378" d="M488.757,185.233c0,.1-6.927.186-15.477.186s-15.47-.086-15.47-.186,6.927-.193,15.47-.193S488.757,185.126,488.757,185.233Z" transform="translate(-330.433 -106.046)" fill="#006562"/>
      <path id="Path_379" data-name="Path 379" d="M450.481,212.636a40.706,40.706,0,0,1-7.771,0,40.707,40.707,0,0,1,7.771,0Z" transform="translate(-326.128 -113.861)" fill="#263238"/>
      <path id="Path_380" data-name="Path 380" d="M487.477,212.636c0,.1-6.934.186-15.477.186s-15.47-.086-15.47-.186,6.927-.186,15.47-.186S487.477,212.536,487.477,212.636Z" transform="translate(-330.068 -113.861)" fill="#006562"/>
      <path id="Path_381" data-name="Path 381" d="M472.727,225.266c0,.107-6.927.186-15.47.186s-15.477-.079-15.477-.186,6.927-.186,15.477-.186S472.727,225.166,472.727,225.266Z" transform="translate(-325.862 -117.462)" fill="#006562"/>
      <path id="Path_382" data-name="Path 382" d="M455.29,192.926a80.445,80.445,0,0,1-10.931,0,80.447,80.447,0,0,1,10.931,0Z" transform="translate(-326.598 -108.241)" fill="#006562"/>
      <path id="Path_383" data-name="Path 383" d="M454.9,204.306a77.471,77.471,0,0,1-10.93,0,80.445,80.445,0,0,1,10.93,0Z" transform="translate(-326.487 -111.486)" fill="#006562"/>
      <path id="Path_384" data-name="Path 384" d="M467.831,220.526a80.454,80.454,0,0,1-10.93,0,80.443,80.443,0,0,1,10.931,0Z" transform="translate(-330.173 -116.111)" fill="#006562"/>
      <path id="Path_385" data-name="Path 385" d="M504.133,192.926c0,.107-6.248.186-13.962.186s-13.962-.079-13.962-.186,6.248-.186,13.962-.186S504.133,192.854,504.133,192.926Z" transform="translate(-335.679 -108.241)" fill="#263238"/>
      <path id="Path_386" data-name="Path 386" d="M492.083,204.926c0,.107-6.255.186-13.962.186s-13.962-.079-13.962-.186,6.248-.186,13.962-.186S492.083,204.854,492.083,204.926Z" transform="translate(-332.243 -111.663)" fill="#263238"/>
      <path id="Path_387" data-name="Path 387" d="M505.523,220.526c0,.1-6.255.186-13.962.186s-13.962-.086-13.962-.186,6.248-.186,13.962-.186S505.523,220.419,505.523,220.526Z" transform="translate(-336.075 -116.111)" fill="#263238"/>
      <path id="Path_388" data-name="Path 388" d="M469.863,234.416c0,.1-6.248.186-13.962.186s-13.962-.086-13.962-.186,6.255-.186,13.962-.186S469.863,234.316,469.863,234.416Z" transform="translate(-325.908 -120.071)" fill="#263238"/>
      <path id="Path_389" data-name="Path 389" d="M513.053,234.416c0,.1-6.255.186-13.962.186s-13.962-.086-13.962-.186,6.248-.186,13.962-.186S513.053,234.316,513.053,234.416Z" transform="translate(-338.222 -120.071)" fill="#263238"/>
      <path id="Path_390" data-name="Path 390" d="M469.863,238.926c0,.1-6.248.186-13.962.186s-13.962-.086-13.962-.186,6.248-.186,13.962-.186S469.863,238.833,469.863,238.926Z" transform="translate(-325.908 -121.357)" fill="#263238"/>
      <path id="Path_391" data-name="Path 391" d="M471.753,196.226c0,.1-6.248.186-13.962.186s-13.962-.086-13.962-.186,6.248-.186,13.962-.186S471.753,196.126,471.753,196.226Z" transform="translate(-326.447 -109.182)" fill="#263238"/>
      <path id="Path_392" data-name="Path 392" d="M469.6,193.006a34.876,34.876,0,0,1-7.192,0A34.88,34.88,0,0,1,469.6,193.006Z" transform="translate(-331.744 -108.264)" fill="#455a64"/>
      <path id="Path_393" data-name="Path 393" d="M449.432,216.356a34.881,34.881,0,0,1-7.192,0A34.879,34.879,0,0,1,449.432,216.356Z" transform="translate(-325.994 -114.922)" fill="#455a64"/>
      <path id="Path_394" data-name="Path 394" d="M449.192,220.526a34.877,34.877,0,0,1-7.192,0,34.881,34.881,0,0,1,7.192,0Z" transform="translate(-325.925 -116.111)" fill="#455a64"/>
      <path id="Path_395" data-name="Path 395" d="M508.226,178.4c0,.107-17.4.186-38.868.186s-38.868-.079-38.868-.186,17.4-.186,38.868-.186S508.226,178.3,508.226,178.4Z" transform="translate(-322.643 -104.098)" fill="#263238"/>
      <path id="Path_396" data-name="Path 396" d="M438.374,174.432a.915.915,0,1,1-.268-.654.922.922,0,0,1,.268.654Z" transform="translate(-324.365 -102.758)" fill="#fff"/>
      <path id="Path_397" data-name="Path 397" d="M443.9,174.432a.915.915,0,1,1-.268-.654A.922.922,0,0,1,443.9,174.432Z" transform="translate(-325.942 -102.758)" fill="#fff"/>
      <path id="Path_398" data-name="Path 398" d="M449.444,174.432a.915.915,0,1,1-.268-.654A.922.922,0,0,1,449.444,174.432Z" transform="translate(-327.522 -102.758)" fill="#fff"/>
      <path id="Path_399" data-name="Path 399" d="M443.545,131.273H363.9l5.891-56.733h80.317Z" transform="translate(-303.657 -74.54)" fill="#263238"/>
      <path id="Path_400" data-name="Path 400" d="M437.875,131.273H358.23l5.891-56.733h80.317Z" transform="translate(-302.04 -74.54)" fill="#455a64"/>
      <path id="Path_401" data-name="Path 401" d="M436.027,129.314h-73.9l5.462-52.644h74.526Z" transform="translate(-303.152 -75.147)" fill="#fafafa"/>
      <path id="Path_402" data-name="Path 402" d="M373.486,123.906c-.1,0,.636-7.935,1.644-17.686s1.9-17.665,2.009-17.65S376.5,96.5,375.5,106.256,373.594,123.906,373.486,123.906Z" transform="translate(-306.388 -78.54)" fill="#263238"/>
      <path id="Path_403" data-name="Path 403" d="M389.361,90.926a37.124,37.124,0,0,1-7.42,0,37.125,37.125,0,0,1,7.42,0Z" transform="translate(-308.801 -79.159)" fill="#263238"/>
      <path id="Path_404" data-name="Path 404" d="M424.683,90.926c0,.1-6.613.186-14.777.186s-14.777-.086-14.777-.186,6.613-.186,14.777-.186S424.683,90.8,424.683,90.926Z" transform="translate(-312.561 -79.159)" fill="#006562"/>
      <path id="Path_405" data-name="Path 405" d="M388.13,117.076a37.123,37.123,0,0,1-7.42,0,37.126,37.126,0,0,1,7.42,0Z" transform="translate(-308.45 -86.615)" fill="#263238"/>
      <path id="Path_406" data-name="Path 406" d="M423.463,117.076c0,.1-6.62.186-14.777.186s-14.777-.086-14.777-.186,6.613-.186,14.777-.186S423.463,116.969,423.463,117.076Z" transform="translate(-312.214 -86.615)" fill="#006562"/>
      <path id="Path_407" data-name="Path 407" d="M409.383,129.136c0,.1-6.62.186-14.777.186s-14.777-.086-14.777-.186,6.613-.186,14.777-.186S409.383,129.036,409.383,129.136Z" transform="translate(-308.199 -90.053)" fill="#006562"/>
      <path id="Path_408" data-name="Path 408" d="M392.727,98.3a73.353,73.353,0,0,1-10.437,0,73.354,73.354,0,0,1,10.437,0Z" transform="translate(-308.901 -81.26)" fill="#006562"/>
      <path id="Path_409" data-name="Path 409" d="M392.357,109.126a73.355,73.355,0,0,1-10.437,0,73.353,73.353,0,0,1,10.437,0Z" transform="translate(-308.795 -84.348)" fill="#006562"/>
      <path id="Path_410" data-name="Path 410" d="M404.7,124.606a73.352,73.352,0,0,1-10.437,0A73.356,73.356,0,0,1,404.7,124.606Z" transform="translate(-312.313 -88.762)" fill="#006562"/>
      <path id="Path_411" data-name="Path 411" d="M439.365,98.3c0,.1-5.969.186-13.332.186S412.7,98.4,412.7,98.3s5.962-.186,13.332-.186S439.365,98.189,439.365,98.3Z" transform="translate(-317.571 -81.26)" fill="#263238"/>
      <path id="Path_412" data-name="Path 412" d="M427.855,109.756c0,.1-5.969.186-13.332.186s-13.333-.086-13.333-.186,5.969-.186,13.333-.186S427.855,109.649,427.855,109.756Z" transform="translate(-314.289 -84.528)" fill="#263238"/>
      <path id="Path_413" data-name="Path 413" d="M440.7,124.606c0,.1-5.969.186-13.332.186s-13.333-.086-13.333-.186,5.969-.186,13.333-.186S440.7,124.5,440.7,124.606Z" transform="translate(-317.95 -88.762)" fill="#263238"/>
      <path id="Path_414" data-name="Path 414" d="M406.644,137.926c0,.1-5.969.186-13.332.186S380,137.99,380,137.926s5.969-.186,13.332-.186S406.644,137.783,406.644,137.926Z" transform="translate(-308.248 -92.56)" fill="#263238"/>
      <path id="Path_415" data-name="Path 415" d="M447.885,137.926c0,.1-5.969.186-13.333.186s-13.332-.086-13.332-.186,5.969-.186,13.332-.186S447.885,137.783,447.885,137.926Z" transform="translate(-320 -92.56)" fill="#263238"/>
      <path id="Path_416" data-name="Path 416" d="M406.635,142.186c0,.107-5.969.186-13.332.186s-13.332-.079-13.332-.186S385.939,142,393.3,142,406.635,142.086,406.635,142.186Z" transform="translate(-308.239 -93.774)" fill="#263238"/>
      <path id="Path_417" data-name="Path 417" d="M408.445,101.406c0,.1-5.969.186-13.332.186s-13.332-.086-13.332-.186,5.969-.186,13.332-.186S408.445,101.3,408.445,101.406Z" transform="translate(-308.755 -82.147)" fill="#263238"/>
      <path id="Path_418" data-name="Path 418" d="M406.4,98.336a31.833,31.833,0,0,1-6.87,0A31.834,31.834,0,0,1,406.4,98.336Z" transform="translate(-313.816 -81.272)" fill="#455a64"/>
      <path id="Path_419" data-name="Path 419" d="M387.13,120.626a31.834,31.834,0,0,1-6.87,0A31.831,31.831,0,0,1,387.13,120.626Z" transform="translate(-308.322 -87.627)" fill="#455a64"/>
      <path id="Path_420" data-name="Path 420" d="M386.91,124.606a31.832,31.832,0,0,1-6.87,0,31.834,31.834,0,0,1,6.87,0Z" transform="translate(-308.259 -88.762)" fill="#455a64"/>
      <path id="Path_421" data-name="Path 421" d="M443.262,84.376c0,.107-16.614.193-37.109.193S369,84.483,369,84.376s16.614-.186,37.124-.186S443.262,84.276,443.262,84.376Z" transform="translate(-305.111 -77.291)" fill="#263238"/>
      <circle id="Ellipse_2" data-name="Ellipse 2" cx="0.879" cy="0.879" r="0.879" transform="translate(68.049 3.696)" fill="#fff"/>
      <circle id="Ellipse_3" data-name="Ellipse 3" cx="0.879" cy="0.879" r="0.879" transform="translate(71.824 3.696)" fill="#fff"/>
      <circle id="Ellipse_4" data-name="Ellipse 4" cx="0.879" cy="0.879" r="0.879" transform="translate(75.598 3.696)" fill="#fff"/>
    </g>
    <g id="Character--inject-34" transform="translate(160.222 146.771)">
      <rect id="Rectangle_9" data-name="Rectangle 9" width="6.205" height="8.464" transform="translate(59.256 198.815)" fill="#263238"/>
      <rect id="Rectangle_10" data-name="Rectangle 10" width="55.053" height="2.681" transform="translate(153.778 100.047) rotate(180)" fill="#263238"/>
      <path id="Path_422" data-name="Path 422" d="M405.293,300.1l10.33-38.7H372.631l-9.351,38.7Z" transform="translate(-242.987 -200.049)" fill="#263238"/>
      <path id="Path_423" data-name="Path 423" d="M366.89,297.885h38.4l8.936-33.985h-38.6Z" transform="translate(-244.017 -200.762)" fill="#f5f5f5"/>
      <path id="Path_424" data-name="Path 424" d="M379.5,273.11l-2.381,9.622h25.464l2.717-9.622Z" transform="translate(-246.933 -203.388)" fill="#e0e0e0"/>
      <path id="Path_425" data-name="Path 425" d="M401.045,271.256c0,.107-4.461.186-9.973.186s-9.973-.079-9.973-.186,4.461-.186,9.973-.186S401.045,271.156,401.045,271.256Z" transform="translate(-248.068 -202.806)" fill="#455a64"/>
      <path id="Path_426" data-name="Path 426" d="M389.582,275.606a43.611,43.611,0,0,1-8.042,0,43.606,43.606,0,0,1,8.042,0Z" transform="translate(-248.194 -204.046)" fill="#263238"/>
      <path id="Path_427" data-name="Path 427" d="M399.723,275.4a18.508,18.508,0,0,1-5.233,0A18.507,18.507,0,0,1,399.723,275.4Z" transform="translate(-251.886 -203.987)" fill="#263238"/>
      <path id="Path_428" data-name="Path 428" d="M403.224,278.046c0,.107-4.926.193-11,.193s-11-.086-11-.193,4.926-.186,11-.186S403.224,277.96,403.224,278.046Z" transform="translate(-248.102 -204.742)" fill="#455a64"/>
      <path id="Path_429" data-name="Path 429" d="M387.709,280.275a34.256,34.256,0,0,1-7.149,0,34.258,34.258,0,0,1,7.149,0Z" transform="translate(-247.914 -205.378)" fill="#006562"/>
      <path id="Path_430" data-name="Path 430" d="M401.1,283.466c0,.1-4.568.186-10.2.186s-10.208-.086-10.208-.186,4.568-.186,10.208-.186S401.1,283.359,401.1,283.466Z" transform="translate(-247.951 -206.288)" fill="#455a64"/>
      <path id="Path_431" data-name="Path 431" d="M385.094,290.356a41.987,41.987,0,0,1-7.864,0,41.984,41.984,0,0,1,7.864,0Z" transform="translate(-246.965 -208.253)" fill="#455a64"/>
      <path id="Path_432" data-name="Path 432" d="M395.523,290.384a10.28,10.28,0,0,1-2.7.164,9.615,9.615,0,0,1-2.688-.214,10.281,10.281,0,0,1,2.7-.164A9.616,9.616,0,0,1,395.523,290.384Z" transform="translate(-250.646 -208.245)" fill="#263238"/>
      <path id="Path_433" data-name="Path 433" d="M402.09,290.146c0,.107-.515.186-1.144.186s-1.137-.079-1.137-.186.515-.186,1.137-.186S402.09,290.046,402.09,290.146Z" transform="translate(-253.403 -208.192)" fill="#263238"/>
      <path id="Path_434" data-name="Path 434" d="M379.909,293.116c0,.107-.565.186-1.258.186s-1.251-.079-1.251-.186.565-.186,1.251-.186S379.909,293.016,379.909,293.116Z" transform="translate(-247.013 -209.039)" fill="#006562"/>
      <path id="Path_435" data-name="Path 435" d="M389.021,293.116a24.225,24.225,0,0,1-5.991,0A24.228,24.228,0,0,1,389.021,293.116Z" transform="translate(-248.618 -209.039)" fill="#263238"/>
      <path id="Path_436" data-name="Path 436" d="M410.066,292.8c0,.107-3.574.186-8,.186s-8.007-.079-8.007-.186,3.574-.186,8.007-.186S410.066,292.7,410.066,292.8Z" transform="translate(-251.763 -208.948)" fill="#455a64"/>
      <path id="Path_437" data-name="Path 437" d="M379.344,295.986c0,.1-.572.186-1.287.186s-1.287-.086-1.287-.186.572-.186,1.287-.186S379.344,295.879,379.344,295.986Z" transform="translate(-246.834 -209.857)" fill="#263238"/>
      <path id="Path_438" data-name="Path 438" d="M384.65,295.918a3.324,3.324,0,0,1-1.551.186,3.367,3.367,0,0,1-1.558-.186,3.482,3.482,0,0,1,1.558-.186A3.439,3.439,0,0,1,384.65,295.918Z" transform="translate(-248.194 -209.832)" fill="#263238"/>
      <path id="Path_439" data-name="Path 439" d="M398.317,295.666a68.517,68.517,0,0,1-10.087,0,68.517,68.517,0,0,1,10.087,0Z" transform="translate(-250.101 -209.766)" fill="#455a64"/>
      <path id="Path_440" data-name="Path 440" d="M388.77,300.646a100.334,100.334,0,0,1-12.21,0,100.366,100.366,0,0,1,12.21,0Z" transform="translate(-246.774 -211.179)" fill="#455a64"/>
      <path id="Path_441" data-name="Path 441" d="M401.4,300.436a20.685,20.685,0,0,1-5.533,0,20.681,20.681,0,0,1,5.533,0Z" transform="translate(-252.279 -211.126)" fill="#006562"/>
      <path id="Path_442" data-name="Path 442" d="M414.759,300.436a56.761,56.761,0,0,1-9.179,0,56.75,56.75,0,0,1,9.179,0Z" transform="translate(-255.048 -211.126)" fill="#263238"/>
      <path id="Path_443" data-name="Path 443" d="M414.242,271.046c0,.107-.429.186-.951.186s-.951-.079-.951-.186.429-.186.951-.186S414.242,270.96,414.242,271.046Z" transform="translate(-256.975 -202.746)" fill="#263238"/>
      <path id="Path_444" data-name="Path 444" d="M386.245,269.246a11.816,11.816,0,0,1-4.175,0A11.817,11.817,0,0,1,386.245,269.246Z" transform="translate(-248.345 -202.233)" fill="#006562"/>
      <path id="Path_445" data-name="Path 445" d="M416.813,266.345h-38.6l.651-2.445h38.6Z" transform="translate(-247.244 -200.762)" fill="#ebebeb"/>
      <circle id="Ellipse_5" data-name="Ellipse 5" cx="0.422" cy="0.422" r="0.422" transform="translate(132.817 63.953)" fill="#fafafa"/>
      <circle id="Ellipse_6" data-name="Ellipse 6" cx="0.422" cy="0.422" r="0.422" transform="translate(134.269 63.953)" fill="#fafafa"/>
      <circle id="Ellipse_7" data-name="Ellipse 7" cx="0.422" cy="0.422" r="0.422" transform="translate(135.72 63.953)" fill="#fafafa"/>
      <rect id="Rectangle_11" data-name="Rectangle 11" width="91.533" height="53.409" transform="translate(125.082 103.65)" fill="#263238"/>
      <rect id="Rectangle_12" data-name="Rectangle 12" width="41.699" height="53.409" transform="translate(125.082 103.65)" fill="#455a64"/>
      <path id="Path_446" data-name="Path 446" d="M408.938,339.955a1.136,1.136,0,0,1,0-.272V338.9c0-.715,0-1.694-.036-2.967,0-2.581-.043-6.269-.072-10.816l.136.136-33.542.05.186-.186h0v14.819l-.172-.172,24.027.079,6.977.05h.079l-6.941.043-24.141.086h-.179V325.136h0l.186-.186,33.542.05h.136v.136c-.036,4.582-.057,8.3-.079,10.895v3.7A1.431,1.431,0,0,0,408.938,339.955Z" transform="translate(-246.403 -218.169)" fill="#263238"/>
      <path id="Path_447" data-name="Path 447" d="M399.677,334.934a1.859,1.859,0,0,0-.643-1.029,1.3,1.3,0,0,0-1.208-.15,1.272,1.272,0,0,0-.815,1.18,1.287,1.287,0,0,0,.815,1.18,1.322,1.322,0,0,0,1.208-.157,1.9,1.9,0,0,0,.643-1.029.546.546,0,0,1,0,.365,1.43,1.43,0,0,1-.508.872,1.551,1.551,0,0,1-1.487.264,1.587,1.587,0,0,1,0-3,1.551,1.551,0,0,1,1.487.257,1.43,1.43,0,0,1,.508.872C399.748,334.8,399.7,334.934,399.677,334.934Z" transform="translate(-252.49 -220.56)" fill="#263238"/>
      <path id="Path_448" data-name="Path 448" d="M408.937,362.782a1.29,1.29,0,0,1,0-.279v-.779c0-.715,0-1.694-.036-2.967,0-2.574-.043-6.262-.071-10.816l.136.136-33.542.057.186-.186h0v14.827l-.172-.179,24.027.086,6.977.05h.079l-6.941.05-24.141.086h-.179V347.956h0c-.043,0,.35-.357.186-.193l33.542.057h.136v.1c-.036,4.59-.057,8.307-.079,10.9v3.689A.982.982,0,0,0,408.937,362.782Z" transform="translate(-246.402 -224.661)" fill="#263238"/>
      <path id="Path_449" data-name="Path 449" d="M399.677,357.786a1.9,1.9,0,0,0-.643-1.008,1.27,1.27,0,1,0-1.208,2.209,1.3,1.3,0,0,0,1.208-.15,1.88,1.88,0,0,0,.643-1.029.546.546,0,0,1,0,.365,1.429,1.429,0,0,1-.508.872,1.551,1.551,0,0,1-1.487.264,1.587,1.587,0,0,1,0-3,1.551,1.551,0,0,1,1.487.264,1.43,1.43,0,0,1,.508.872C399.748,357.657,399.7,357.786,399.677,357.786Z" transform="translate(-252.49 -227.085)" fill="#263238"/>
      <path id="Path_450" data-name="Path 450" d="M408.938,385.645a1.136,1.136,0,0,1,0-.272v-.779c0-.715,0-1.694-.036-2.967,0-2.581-.043-6.27-.072-10.816l.136.136-33.542.05.186-.186h0v14.819l-.172-.172,24.027.079,6.977.05h.079l-6.941.043-24.141.086h-.179V370.826h0l.186-.186,33.542.05h.136v.136c-.036,4.582-.057,8.3-.079,10.895v3.7A.631.631,0,0,0,408.938,385.645Z" transform="translate(-246.403 -231.196)" fill="#263238"/>
      <path id="Path_451" data-name="Path 451" d="M399.677,380.627a1.859,1.859,0,0,0-.643-1.029,1.3,1.3,0,0,0-1.208-.15,1.269,1.269,0,1,0,1.208,2.209,1.9,1.9,0,0,0,.643-1.029.546.546,0,0,1,0,.365,1.43,1.43,0,0,1-.508.872,1.551,1.551,0,0,1-1.487.264,1.587,1.587,0,0,1,0-3,1.551,1.551,0,0,1,1.487.257,1.43,1.43,0,0,1,.508.872C399.748,380.5,399.7,380.627,399.677,380.627Z" transform="translate(-252.49 -233.59)" fill="#263238"/>
      <rect id="Rectangle_13" data-name="Rectangle 13" width="219.94" height="5.076" transform="translate(0 99.926)" fill="#263238"/>
      <rect id="Rectangle_14" data-name="Rectangle 14" width="6.82" height="102.728" transform="translate(2.952 105.001)" fill="#263238"/>
      <rect id="Rectangle_15" data-name="Rectangle 15" width="6.82" height="102.757" transform="translate(209.796 105.001)" fill="#263238"/>
      <rect id="Rectangle_16" data-name="Rectangle 16" width="6.82" height="102.757" transform="translate(166.781 105.001)" fill="#263238"/>
      <path id="Path_453" data-name="Path 453" d="M226.591,315.286c0,.1-6.555.186-14.641.186s-14.641-.086-14.641-.186,6.555-.186,14.641-.186S226.591,315.179,226.591,315.286Z" transform="translate(-195.666 -215.36)" fill="#455a64"/>
      <path id="Path_454" data-name="Path 454" d="M322.664,456.066l.172-7.342-13.761-.415-.365,10.723.851.079c3.789.329,19.3,1.387,21.854.715C334.274,459.055,322.664,456.066,322.664,456.066Z" transform="translate(-227.428 -253.341)" fill="#006562"/>
      <g id="Group_21" data-name="Group 21" transform="translate(81.282 204.391)" opacity="0.4">
        <path id="Path_455" data-name="Path 455" d="M328.326,461.49s4.068,1.3,3.531,1.966-16.242.172-23.148-.643v-.307l18.322.715S327.5,461.5,328.326,461.49Z" transform="translate(-308.71 -461.49)" fill="#fff"/>
      </g>
      <path id="Path_456" data-name="Path 456" d="M308.45,462.89h.236l.715.064,2.495.186c2.109.143,5,.293,8.25.4s6.148.129,8.264.122h0c-2.109,0-5-.071-8.257-.172s-6.141-.236-8.25-.35l-2.5-.129h-.715Z" transform="translate(-227.354 -257.498)" fill="#263238"/>
      <path id="Path_457" data-name="Path 457" d="M334.36,463.369a5.472,5.472,0,0,1,.508-1.18,5.953,5.953,0,0,1,.879-.929A2.23,2.23,0,0,0,334.36,463.369Z" transform="translate(-234.741 -257.033)" fill="#263238"/>
      <path id="Path_458" data-name="Path 458" d="M328.768,460.712a1.842,1.842,0,0,0,.45-.515,1.575,1.575,0,0,0,.315-.608c-.036-.021-.243.2-.45.515S328.732,460.683,328.768,460.712Z" transform="translate(-233.146 -256.557)" fill="#263238"/>
      <path id="Path_459" data-name="Path 459" d="M327.239,459.988a2.173,2.173,0,0,0,.493-.315c.243-.207.415-.4.386-.436s-.25.107-.493.315S327.21,459.953,327.239,459.988Z" transform="translate(-232.71 -256.455)" fill="#263238"/>
      <path id="Path_460" data-name="Path 460" d="M326.31,458.415a1.753,1.753,0,0,0,.715.114,1.566,1.566,0,0,0,.715-.057,1.787,1.787,0,0,0-.715-.114C326.632,458.344,326.31,458.365,326.31,458.415Z" transform="translate(-232.446 -256.205)" fill="#263238"/>
      <path id="Path_461" data-name="Path 461" d="M326,457.15a1.465,1.465,0,0,0,.793.257,1.43,1.43,0,0,0,.829-.086,3.855,3.855,0,0,0-.815-.079A3.64,3.64,0,0,0,326,457.15Z" transform="translate(-232.358 -255.862)" fill="#263238"/>
      <path id="Path_462" data-name="Path 462" d="M329.48,459.022a2.619,2.619,0,0,0,.879,0,5.589,5.589,0,0,0,.951-.179,2.71,2.71,0,0,0,.543-.207.472.472,0,0,0,.229-.264.343.343,0,0,0-.121-.357,1.63,1.63,0,0,0-2.023.407,1.658,1.658,0,0,0-.307.586.594.594,0,0,0,0,.236,2.525,2.525,0,0,1,.429-.715,1.566,1.566,0,0,1,.765-.465,1.43,1.43,0,0,1,1.058.1c.136.107.072.272-.086.365a3.02,3.02,0,0,1-.5.193,6.627,6.627,0,0,1-.922.214C329.852,459,329.48,458.994,329.48,459.022Z" transform="translate(-233.35 -256.054)" fill="#263238"/>
      <path id="Path_463" data-name="Path 463" d="M329.349,458.877a.865.865,0,0,0,.122-.608,1.43,1.43,0,0,0-.222-.658.887.887,0,0,0-.715-.472.35.35,0,0,0-.286.4.987.987,0,0,0,.143.4,2.433,2.433,0,0,0,.4.543,1.366,1.366,0,0,0,.493.379,5.26,5.26,0,0,1-.407-.458,3.03,3.03,0,0,1-.35-.536c-.114-.193-.193-.529.036-.565s.436.214.565.393a1.429,1.429,0,0,1,.236.586A2.859,2.859,0,0,1,329.349,458.877Z" transform="translate(-232.998 -255.859)" fill="#263238"/>
      <path id="Path_464" data-name="Path 464" d="M309,457.617c0,.036.4,0,1.015.072a4.289,4.289,0,0,1,3.517,2.981,10.178,10.178,0,0,1,.229.994.716.716,0,0,0,0-.279,4.687,4.687,0,0,0-.129-.715,4.182,4.182,0,0,0-3.617-3.067,3.774,3.774,0,0,0-.758,0,1.062,1.062,0,0,0-.257.014Z" transform="translate(-227.511 -255.985)" fill="#263238"/>
      <path id="Path_465" data-name="Path 465" d="M311.133,449.68a25.947,25.947,0,0,0-.207,2.824,25.31,25.31,0,0,0-.036,2.86,25.728,25.728,0,0,0,.207-2.824A23.428,23.428,0,0,0,311.133,449.68Z" transform="translate(-228.043 -253.732)" fill="#263238"/>
      <path id="Path_466" data-name="Path 466" d="M318.17,461.585a7.7,7.7,0,0,0,2,.265,7.993,7.993,0,0,0,2.016-.1c0-.05-.9,0-2.009-.064S318.177,461.542,318.17,461.585Z" transform="translate(-230.126 -257.123)" fill="#263238"/>
      <path id="Path_467" data-name="Path 467" d="M314.4,461.469s.064.193.15.4.129.4.179.393.079-.214,0-.45S314.429,461.44,314.4,461.469Z" transform="translate(-229.051 -257.092)" fill="#263238"/>
      <path id="Path_468" data-name="Path 468" d="M313,459.658a.918.918,0,0,0,.186.329c.136.15.279.243.315.207s-.05-.172-.193-.322S313.057,459.629,313,459.658Z" transform="translate(-228.651 -256.575)" fill="#263238"/>
      <path id="Path_469" data-name="Path 469" d="M311,458.761c0,.05.193.05.393.129s.343.186.379.157-.071-.222-.322-.315S311,458.718,311,458.761Z" transform="translate(-228.081 -256.3)" fill="#263238"/>
      <path id="Path_470" data-name="Path 470" d="M309.58,458.347c0,.043.064.114.172.164s.222.05.236,0-.057-.122-.172-.164S309.6,458.3,309.58,458.347Z" transform="translate(-227.676 -256.194)" fill="#263238"/>
      <g id="Group_22" data-name="Group 22" transform="translate(81.439 199.802)" opacity="0.3">
        <path id="Path_471" data-name="Path 471" d="M309.009,456.536l13.754.193.029-1.659-13.862.586Z" transform="translate(-308.93 -455.07)"/>
      </g>
      <path id="Path_472" data-name="Path 472" d="M353.067,457.809V450.46l-13.769-.05-.079,10.723.851.057c3.8.222,19.3.872,21.868.114C364.756,460.483,353.067,457.809,353.067,457.809Z" transform="translate(-236.127 -253.94)" fill="#006562"/>
      <g id="Group_23" data-name="Group 23" transform="translate(103.064 205.378)" opacity="0.4">
        <path id="Path_473" data-name="Path 473" d="M358.761,462.87s4.1,1.2,3.574,1.873-16.228.608-23.155,0v-.307l18.329.236S357.96,462.906,358.761,462.87Z" transform="translate(-339.18 -462.87)" fill="#fff"/>
      </g>
      <path id="Path_474" data-name="Path 474" d="M338.92,465h.236l.679.043,2.5.122c2.109.086,5,.164,8.257.179s6.148,0,8.264-.093l2.5-.093.679-.043h-.679l-2.5.036c-2.145,0-5.04.064-8.264.05s-6.141-.079-8.257-.129l-2.5-.072Z" transform="translate(-236.042 -258.1)" fill="#263238"/>
      <path id="Path_475" data-name="Path 475" d="M364.855,464.792a5.189,5.189,0,0,1,.472-1.194,5.556,5.556,0,0,1,.858-.958,1.845,1.845,0,0,0-1,.872,1.816,1.816,0,0,0-.329,1.28Z" transform="translate(-243.433 -257.427)" fill="#263238"/>
      <path id="Path_476" data-name="Path 476" d="M359.187,462.283a1.989,1.989,0,0,0,.436-.529c.207-.315.329-.586.293-.615s-.236.214-.436.529S359.144,462.254,359.187,462.283Z" transform="translate(-241.818 -256.998)" fill="#263238"/>
      <path id="Path_477" data-name="Path 477" d="M357.629,461.6a2.24,2.24,0,0,0,.486-.322c.236-.207.407-.415.379-.45s-.25.114-.486.322S357.6,461.564,357.629,461.6Z" transform="translate(-241.375 -256.909)" fill="#263238"/>
      <path id="Path_478" data-name="Path 478" d="M356.65,460.061a1.73,1.73,0,0,0,.715.093,1.645,1.645,0,0,0,.715-.071c0-.05-.315-.093-.715-.093S356.65,460,356.65,460.061Z" transform="translate(-241.097 -256.671)" fill="#263238"/>
      <path id="Path_479" data-name="Path 479" d="M356.32,458.8a1.43,1.43,0,0,0,.8.236,1.308,1.308,0,0,0,.829-.107,5.007,5.007,0,0,0-.815-.057A4.61,4.61,0,0,0,356.32,458.8Z" transform="translate(-241.003 -256.332)" fill="#263238"/>
      <path id="Path_480" data-name="Path 480" d="M359.85,460.573a2.366,2.366,0,0,0,.879,0,4.54,4.54,0,0,0,.944-.207,2.372,2.372,0,0,0,.543-.214.493.493,0,0,0,.222-.279.35.35,0,0,0-.136-.35,1.623,1.623,0,0,0-2.009.465,1.766,1.766,0,0,0-.293.586.529.529,0,0,0,0,.243,2.479,2.479,0,0,1,.407-.715,1.629,1.629,0,0,1,.758-.493,1.38,1.38,0,0,1,1.051.079c.143.107.086.272-.071.365a2.486,2.486,0,0,1-.493.207,6.663,6.663,0,0,1-.915.236A3.745,3.745,0,0,0,359.85,460.573Z" transform="translate(-242.009 -256.49)" fill="#263238"/>
      <path id="Path_481" data-name="Path 481" d="M359.719,460.446a.922.922,0,0,0,.1-.615,1.43,1.43,0,0,0-.236-.651.9.9,0,0,0-.715-.45.343.343,0,0,0-.272.408.965.965,0,0,0,.15.393,2.63,2.63,0,0,0,.415.536c.272.272.493.379.5.357s-.172-.157-.415-.436a3.475,3.475,0,0,1-.372-.536c-.122-.186-.2-.522,0-.558s.443.2.579.372a1.43,1.43,0,0,1,.25.579A3.575,3.575,0,0,1,359.719,460.446Z" transform="translate(-241.65 -256.312)" fill="#263238"/>
      <path id="Path_482" data-name="Path 482" d="M339.33,459.71a5.2,5.2,0,0,1,1.015.043,4.354,4.354,0,0,1,2.216.922,4.4,4.4,0,0,1,1.38,1.966c.207.586.229.987.257.979a.934.934,0,0,0,0-.279,4.153,4.153,0,0,0-.143-.715,4.2,4.2,0,0,0-3.7-2.974,4.124,4.124,0,0,0-.758,0C339.423,459.674,339.33,459.7,339.33,459.71Z" transform="translate(-236.159 -256.57)" fill="#263238"/>
      <path id="Path_483" data-name="Path 483" d="M341.3,451.73a24,24,0,0,0-.129,2.86,22.578,22.578,0,0,0,.036,2.859,25.994,25.994,0,0,0,.129-2.86A22.624,22.624,0,0,0,341.3,451.73Z" transform="translate(-236.674 -254.316)" fill="#263238"/>
      <path id="Path_484" data-name="Path 484" d="M348.6,463.454a7.819,7.819,0,0,0,2.009.207,7.922,7.922,0,0,0,2.016-.157c0-.043-.908,0-2.016,0S348.607,463.4,348.6,463.454Z" transform="translate(-238.802 -257.655)" fill="#263238"/>
      <path id="Path_485" data-name="Path 485" d="M344.82,463.428a3.933,3.933,0,0,0,.164.4c.086.207.143.393.193.386s.072-.214-.036-.45S344.856,463.4,344.82,463.428Z" transform="translate(-237.724 -257.651)" fill="#263238"/>
      <path id="Path_486" data-name="Path 486" d="M343.407,461.657c-.036,0,.057.172.2.322s.279.236.315.2-.057-.172-.2-.322S343.443,461.621,343.407,461.657Z" transform="translate(-237.319 -257.144)" fill="#263238"/>
      <path id="Path_487" data-name="Path 487" d="M341.38,460.81c0,.05.193.05.393.122s.35.179.386.15-.079-.222-.329-.307S341.365,460.768,341.38,460.81Z" transform="translate(-236.743 -256.884)" fill="#263238"/>
      <path id="Path_488" data-name="Path 488" d="M339.93,460.439c0,.043.064.114.179.164s.222.043.236,0-.064-.114-.179-.157S339.98,460.4,339.93,460.439Z" transform="translate(-236.33 -256.791)" fill="#263238"/>
      <g id="Group_24" data-name="Group 24" transform="translate(103.086 200.945)" opacity="0.3">
        <path id="Path_489" data-name="Path 489" d="M339.317,458.493l13.754-.164-.014-1.658-13.847.951Z" transform="translate(-339.21 -456.67)"/>
      </g>
      <path id="Path_490" data-name="Path 490" d="M316.07,282.361l5.512,16.592c1.487,4.482,5.4,5.254,10.13,5.254h30.661v-6.884l-28.009-4-6.677-17.057Z" transform="translate(-229.527 -204.289)" fill="#ffbe9d"/>
      <path id="Path_491" data-name="Path 491" d="M384.214,301.33l2.431-1.151s2.624-5.068,3.224-4.861.779,1.694-.272,4.018l3.231-.922s7.006,3.238,6.7,3.674a1.636,1.636,0,0,1-2.409.715c-1.523-.758-3.531-1.7-3.531-1.7l-3.775,1.079,4.868.622,4.582,4.161a2.243,2.243,0,0,1-2.8-.064l-11.9,2.552-3.724.214v-6.884Z" transform="translate(-247.994 -209.718)" fill="#ffbe9d"/>
      <path id="Path_492" data-name="Path 492" d="M400.121,310.528c-.05,0-.272-.322-.715-.786a3.632,3.632,0,0,0-.865-.672,3.5,3.5,0,0,0-1.287-.336,18.08,18.08,0,0,1-3.574-.608,17.98,17.98,0,0,1,3.617.243,3.46,3.46,0,0,1,1.43.408,3.287,3.287,0,0,1,.894.794,2.066,2.066,0,0,1,.5.958Z" transform="translate(-251.655 -213.369)" fill="#eb996e"/>
      <path id="Path_493" data-name="Path 493" d="M398.522,311.774c-.05,0-.086-.243-.415-.315s-.886-.129-1.43-.186a12.645,12.645,0,0,1-2.087-.207,4.2,4.2,0,0,1,2.145-.164,6.578,6.578,0,0,1,1.494.307.586.586,0,0,1,.357.379C398.586,311.717,398.543,311.781,398.522,311.774Z" transform="translate(-251.914 -214.143)" fill="#eb996e"/>
      <path id="Path_494" data-name="Path 494" d="M279.2,188.083l-1.666,33.728,14.441,1.358.8-8.15s5.09,1.258,6.634-3.453c.994-3.01,1.873-26.586,1.873-26.586Z" transform="translate(-218.538 -178.26)" fill="#ffbe9d"/>
      <path id="Path_495" data-name="Path 495" d="M300.968,187.129c.4,3.16-4.01,5-4.01,5l-.772,7.47a14.539,14.539,0,0,0-2.073,0c.372-3.5-4.146-2.817-4.6-.429s2.145,3.832,2.145,3.832a34.193,34.193,0,0,1-5.1,6.827c-2.774,2.809-4.289,3.038-7.149,2.952l-3.153-.143a39.245,39.245,0,0,1-1.952-9.065c-.393-3.06-2.788-7.077-2.1-12.053,1.93-14.147,15.484-12.653,15.484-12.653C294.77,179.022,300.038,179.808,300.968,187.129Z" transform="translate(-216.984 -176.506)" fill="#263238"/>
      <path id="Path_496" data-name="Path 496" d="M298,179.4c3.06.079,6.234.322,8.922,1.787s4.761,4.489,4.211,7.5l-1.53.279-.629-1.13v1.8l-2.688.751a19.7,19.7,0,0,0-2.388-6.513" transform="translate(-224.375 -176.669)" fill="#263238"/>
      <path id="Path_497" data-name="Path 497" d="M280.35,195.887a1.822,1.822,0,0,1-.236-.529,9.078,9.078,0,0,1-.386-1.537,11.238,11.238,0,0,1,3.01-9.672,8.732,8.732,0,0,1,1.18-1.051,1.758,1.758,0,0,1,.5-.307c.036.05-.622.543-1.487,1.53a12.332,12.332,0,0,0-2.481,4.418,12.461,12.461,0,0,0-.443,5.047C280.143,195.093,280.415,195.865,280.35,195.887Z" transform="translate(-219.121 -177.636)" fill="#455a64"/>
      <path id="Path_498" data-name="Path 498" d="M284.28,194.667a5.862,5.862,0,0,1-.565-1.73,14.39,14.39,0,0,1-.279-4.389,14.621,14.621,0,0,1,1.029-4.289,5.79,5.79,0,0,1,.865-1.608,18.656,18.656,0,0,0-1.051,12.017Z" transform="translate(-220.206 -177.596)" fill="#455a64"/>
      <path id="Path_499" data-name="Path 499" d="M305.763,188.861c-.072,0-.193-.872-.779-2.145a9.865,9.865,0,0,0-8.629-5.819c-1.43-.064-2.28.15-2.295.086a1.888,1.888,0,0,1,.6-.186,8.27,8.27,0,0,1,1.7-.157,9.529,9.529,0,0,1,8.865,6,8.236,8.236,0,0,1,.479,1.637A1.787,1.787,0,0,1,305.763,188.861Z" transform="translate(-223.251 -177.023)" fill="#455a64"/>
      <path id="Path_500" data-name="Path 500" d="M281.289,175.58a3.753,3.753,0,0,1,2.073,1.23,3.682,3.682,0,0,1,1.215,2.08c-.1.043-.565-.915-1.48-1.823S281.239,175.687,281.289,175.58Z" transform="translate(-219.609 -175.58)" fill="#263238"/>
      <path id="Path_501" data-name="Path 501" d="M285.814,175.6c.107.036-.114.794-.071,1.73s.3,1.666.2,1.716a2.417,2.417,0,0,1-.572-1.7A2.388,2.388,0,0,1,285.814,175.6Z" transform="translate(-220.767 -175.586)" fill="#455a64"/>
      <path id="Path_502" data-name="Path 502" d="M295.2,266.3l2.352,7.985,14.97-6.77c-.536-1.673-3.017-9.122-7.749-20.946a20.324,20.324,0,0,0-15.52-12.5,88.961,88.961,0,0,0-14.3-1.43c-8.393.093-20.732,5.34-22.4,13.583-1.272,6.277-.05,17.364-.05,30.833l1.094,25.736,43.007,1.43Z" transform="translate(-211.251 -191.849)" fill="#006562"/>
      <g id="Group_25" data-name="Group 25" transform="translate(41.27 78.783)" opacity="0.3">
        <path id="Path_503" data-name="Path 503" d="M252.74,286.26c5.233,1.072,10.6,0,15.935-.322,3.231-.193,6.82-.543,9.379,1.43,2.03,1.573,2.859,4.225,3.431,6.727,2.23,9.529,2.631,15.92,3.131,25.693l-25.886,1.573Z" transform="translate(-252.74 -285.784)"/>
      </g>
      <path id="Path_504" data-name="Path 504" d="M303.955,248.606c0,.107-11.3.186-25.221.186s-25.214-.079-25.214-.186,11.288-.186,25.214-.186S303.955,248.506,303.955,248.606Z" transform="translate(-211.692 -196.348)" fill="#fafafa"/>
      <path id="Path_505" data-name="Path 505" d="M306.591,258.716c0,.1-12.282.186-27.416.186s-27.416-.086-27.416-.186,12.267-.186,27.416-.186S306.591,258.616,306.591,258.716Z" transform="translate(-211.191 -199.231)" fill="#fafafa"/>
      <path id="Path_506" data-name="Path 506" d="M310.666,271.4c0,.107-13.1.186-29.253.186s-29.253-.079-29.253-.186,13.1-.186,29.253-.186S310.666,271.3,310.666,271.4Z" transform="translate(-211.305 -202.846)" fill="#fafafa"/>
      <path id="Path_507" data-name="Path 507" d="M304.709,285.076c0,.1-4.1.186-9.136.186s-9.143-.086-9.143-.186,4.089-.186,9.143-.186S304.709,284.969,304.709,285.076Z" transform="translate(-221.076 -206.747)" fill="#fafafa"/>
      <path id="Path_508" data-name="Path 508" d="M305.54,299.888c0,.1-4.289.15-9.565.107s-9.565-.157-9.565-.264,4.289-.15,9.565-.107S305.54,299.766,305.54,299.888Z" transform="translate(-221.07 -210.943)" fill="#fafafa"/>
      <path id="Path_509" data-name="Path 509" d="M306.123,311.879a2.859,2.859,0,0,1-.751.036l-2.052-.043c-1.73-.036-4.118-.086-6.756-.086s-5,.043-6.756.079l-2.052.043a2.93,2.93,0,0,1-.758,0,2.861,2.861,0,0,1,.751-.114c.479-.05,1.18-.1,2.045-.15,1.73-.107,4.125-.193,6.77-.193s5.04.093,6.763.2c.865.05,1.566.107,2.052.157a3.1,3.1,0,0,1,.743.071Z" transform="translate(-221.238 -214.319)" fill="#fafafa"/>
      <path id="Path_510" data-name="Path 510" d="M306.047,321.736c0,.1-4.218.186-9.422.186s-9.415-.086-9.415-.186,4.211-.186,9.415-.186S306.047,321.629,306.047,321.736Z" transform="translate(-221.298 -217.199)" fill="#fafafa"/>
      <path id="Path_511" data-name="Path 511" d="M300.6,238.7c0,.107-8.278.186-18.487.186s-18.494-.079-18.494-.186,8.278-.186,18.494-.186S300.6,238.6,300.6,238.7Z" transform="translate(-214.572 -193.523)" fill="#fafafa"/>
      <path id="Path_512" data-name="Path 512" d="M311.826,240.647c0,.043-.429.064-1.144.343A6.041,6.041,0,0,0,308.2,243a8.392,8.392,0,0,0-1.48,4.482,28.156,28.156,0,0,0,.458,5.891,95.784,95.784,0,0,0,2.4,10.544c.35,1.294.643,2.359.865,3.167a8.531,8.531,0,0,1,.279,1.172,6.78,6.78,0,0,1-.415-1.129c-.243-.715-.586-1.809-.987-3.138a82.916,82.916,0,0,1-2.5-10.559,27.729,27.729,0,0,1-.429-5.976,8.478,8.478,0,0,1,1.616-4.611,5.841,5.841,0,0,1,2.638-1.987,4.346,4.346,0,0,1,.879-.2,1.052,1.052,0,0,1,.3-.007Z" transform="translate(-226.762 -194.13)" fill="#263238"/>
      <path id="Path_513" data-name="Path 513" d="M329.978,278.57a14.049,14.049,0,0,1-2.109,1.215c-1.33.715-3.2,1.608-5.283,2.552s-4,1.73-5.4,2.266a14.933,14.933,0,0,1-2.3.779,16.446,16.446,0,0,1,2.2-1.022c1.373-.6,3.274-1.43,5.354-2.359s3.953-1.823,5.312-2.452a17.92,17.92,0,0,1,2.23-.979Z" transform="translate(-229.187 -204.945)" fill="#263238"/>
      <path id="Path_514" data-name="Path 514" d="M272.807,331.36l51.385,1.816a15.334,15.334,0,0,1,14.784,15.556l-2.145,73.389-19.852-.658,1.48-68.714-45.659-1.2Z" transform="translate(-217.19 -219.996)" fill="#263238"/>
      <path id="Path_515" data-name="Path 515" d="M243.11,331.36l51.393,1.816a15.334,15.334,0,0,1,14.784,15.556l-2.145,73.389-20.117-1.594,1.759-67.778-45.659-1.2Z" transform="translate(-208.724 -219.996)" fill="#263238"/>
      <rect id="Rectangle_17" data-name="Rectangle 17" width="5.054" height="60.557" transform="translate(67.792 138.022)" fill="#455a64"/>
      <path id="Path_516" data-name="Path 516" d="M230.51,284.548v44.58A10.587,10.587,0,0,0,241.1,339.715h29.689V284.548a4.718,4.718,0,0,0-4.718-4.718h-30.84A4.718,4.718,0,0,0,230.51,284.548Z" transform="translate(-205.132 -205.304)" fill="#455a64"/>
      <path id="Path_517" data-name="Path 517" d="M313.9,365.514H241.61a7.864,7.864,0,0,1,7.864-7.864h56.6a7.864,7.864,0,0,1,7.864,7.864Z" transform="translate(-208.297 -227.492)" fill="#455a64"/>
      <path id="Path_518" data-name="Path 518" d="M274.724,356.22a2.191,2.191,0,0,1,0,.343,4.591,4.591,0,0,1-.122.972,5.34,5.34,0,0,1-4.232,4.025,20.666,20.666,0,0,1-2.86.107h-6.5c-4.611,0-8.786,0-11.8-.043l-3.574-.05-.972-.036a1.928,1.928,0,0,1-.343-.036,1.128,1.128,0,0,1,.343-.043l.972-.036,3.574-.064c3.017-.036,7.192-.057,11.8-.064H267.5a22.305,22.305,0,0,0,2.809-.064,5.146,5.146,0,0,0,2.188-.929,5.24,5.24,0,0,0,1.952-2.859A10.366,10.366,0,0,0,274.724,356.22Z" transform="translate(-209.069 -227.084)" fill="#263238"/>
      <path id="Path_519" data-name="Path 519" d="M296.042,368.787a53.029,53.029,0,0,1-8.872,0,52.994,52.994,0,0,1,8.872,0Z" transform="translate(-221.287 -230.608)" fill="#263238"/>
      <path id="Path_520" data-name="Path 520" d="M315.662,352.895a12.1,12.1,0,0,1-.443-2.145c-.243-1.373-.565-3.367-.951-5.826a29.928,29.928,0,0,0-2.009-8.393,20.344,20.344,0,0,0-2.681-4.289,19.5,19.5,0,0,0-4.032-3.632,17.873,17.873,0,0,0-4.89-2.352,18.481,18.481,0,0,0-5-.865c-3.267-.071-6.255-.057-8.743-.107s-4.511-.072-5.9-.114a11.579,11.579,0,0,1-2.145-.15,12.1,12.1,0,0,1,2.145-.143c1.394-.043,3.41-.086,5.9-.114s5.447-.093,8.764-.05A19.109,19.109,0,0,1,305.94,328a19.466,19.466,0,0,1,4.175,3.782,20.538,20.538,0,0,1,2.752,4.475c.164.379.3.772.45,1.151l.214.572c.05.193.107.386.157.579.107.379.214.758.315,1.13s.136.751.207,1.115c.25,1.466.386,2.809.558,4.053.315,2.466.565,4.475.715,5.855A12.153,12.153,0,0,1,315.662,352.895Z" transform="translate(-218.917 -218.097)" fill="#455a64"/>
      <path id="Path_521" data-name="Path 521" d="M306.574,452.136h-.715a21.509,21.509,0,1,0-43.018,0h-.711a22.224,22.224,0,1,1,44.448,0Z" transform="translate(-214.147 -248.095)" fill="#455a64"/>
      <path id="Path_522" data-name="Path 522" d="M264.633,461.251a3.324,3.324,0,1,1-.974-2.358,3.331,3.331,0,0,1,.974,2.358Z" transform="translate(-212.961 -256.081)" fill="#263238"/>
      <path id="Path_523" data-name="Path 523" d="M326.033,460.611a3.331,3.331,0,1,1-3.331-3.331,3.331,3.331,0,0,1,3.331,3.331Z" transform="translate(-230.468 -255.899)" fill="#263238"/>
      <path id="Path_524" data-name="Path 524" d="M306.773,453.286c0,.107-9.672.193-21.6.193s-21.6-.086-21.6-.193,9.665-.186,21.6-.186S306.773,453.186,306.773,453.286Z" transform="translate(-214.561 -254.707)" fill="#455a64"/>
    </g>
    <g id="Plants--inject-34" transform="translate(166.327 206.185)">
      <path id="Path_525" data-name="Path 525" d="M219.3,258.747a4.668,4.668,0,0,1,2.073,2.981,8.243,8.243,0,0,1-.114,3.71,14.084,14.084,0,0,1-3.86,6.32c-1.794-1.98-1.9-5.083-1.859-6.663.072-2.495,1.723-6.963,3.76-6.348" transform="translate(-206.966 -258.69)" fill="#006562"/>
      <path id="Path_526" data-name="Path 526" d="M220.754,281.077a3.96,3.96,0,0,1,1.709-3.574,5.276,5.276,0,0,1,4-.758,2.216,2.216,0,0,1,1.6.958,1.694,1.694,0,0,1-.172,1.709,3.382,3.382,0,0,1-1.43,1.094c-1.866.886-3.832,1.43-5.719.586" transform="translate(-208.451 -263.805)" fill="#006562"/>
      <path id="Path_527" data-name="Path 527" d="M216.54,287.223a7.708,7.708,0,0,1,.457-1.53,7.1,7.1,0,0,1,.794-1.551,15.175,15.175,0,0,1,1.244-1.723,7.927,7.927,0,0,1,3.117-2.273,5.9,5.9,0,0,1,1.137-.293,1.308,1.308,0,0,1,.429,0c0,.05-.6.114-1.494.493a8.478,8.478,0,0,0-2.981,2.273A17.164,17.164,0,0,0,218,284.3a8.183,8.183,0,0,0-.829,1.487,11,11,0,0,1-.629,1.437Z" transform="translate(-207.254 -264.719)" fill="#263238"/>
      <path id="Path_528" data-name="Path 528" d="M218.545,263.68a4.09,4.09,0,0,1,0,.808c0,.515-.071,1.265-.136,2.188-.136,1.852-.357,4.4-.658,7.22s-.658,5.347-.951,7.149c-.15.915-.272,1.651-.372,2.145a4.69,4.69,0,0,1-.179.786,4.181,4.181,0,0,1,.071-.808c.079-.558.172-1.294.286-2.145.243-1.837.565-4.375.872-7.192s.543-5.312.715-7.2c.093-.886.172-1.623.229-2.188a5.325,5.325,0,0,1,.122-.765Z" transform="translate(-207.171 -260.112)" fill="#263238"/>
      <path id="Path_529" data-name="Path 529" d="M213.316,280.852a9.293,9.293,0,0,0-5.2-6.684,1.981,1.981,0,0,0-2.109,0,1.929,1.929,0,0,0-.114,2.109,7.907,7.907,0,0,0,7.385,4.754" transform="translate(-204.144 -263.015)" fill="#006562"/>
      <path id="Path_530" data-name="Path 530" d="M209.83,277.27a1.352,1.352,0,0,1,.379.186,12.11,12.11,0,0,1,3.7,3.288,6.563,6.563,0,0,1,.865,1.93,6.434,6.434,0,0,1,.193,1.716,6.333,6.333,0,0,1-.136,1.151,1.551,1.551,0,0,1-.114.415c-.057,0,.072-.608.057-1.566a7.148,7.148,0,0,0-.236-1.651,6.776,6.776,0,0,0-.858-1.844,11.738,11.738,0,0,0-2.609-2.666A12.658,12.658,0,0,1,209.83,277.27Z" transform="translate(-205.341 -263.987)" fill="#263238"/>
      <path id="Path_531" data-name="Path 531" d="M212.486,308.229h0a8.943,8.943,0,0,1-8.936-8.943V290.35h17.872v8.936A8.943,8.943,0,0,1,212.486,308.229Z" transform="translate(-203.55 -267.717)" fill="#263238"/>
      <path id="Path_532" data-name="Path 532" d="M221.429,296.423a1.68,1.68,0,0,1-.243.25l-.715.665-2.724,2.3-.064.05-.079-.043-5.154-3.1h.15l-4.854,3.088-.071.05-.072-.057-2.967-2.323-.815-.658a1.5,1.5,0,0,1-.272-.257,1.231,1.231,0,0,1,.322.193c.229.164.515.372.858.608l3.024,2.245h-.143l4.8-3.16.079-.05.079.043h0l5.154,3.16h-.143l2.767-2.238.779-.615A2.178,2.178,0,0,1,221.429,296.423Z" transform="translate(-203.55 -269.393)" fill="#e0e0e0"/>
      <path id="Path_533" data-name="Path 533" d="M221.441,293.937a1.68,1.68,0,0,1-.243.25l-.715.665-2.7,2.323-.064.05-.079-.043-5.183-3.117h.15l-4.825,3.124-.071.05-.072-.057-2.967-2.323-.815-.658a1.5,1.5,0,0,1-.272-.257,1.229,1.229,0,0,1,.322.193l.858.608,3.024,2.245h-.143l4.8-3.16.079-.05.079.043h0l5.154,3.16h-.143l2.767-2.238.779-.615A1.655,1.655,0,0,1,221.441,293.937Z" transform="translate(-203.561 -268.695)" fill="#e0e0e0"/>
      <path id="Path_534" data-name="Path 534" d="M221.44,298.952a2.781,2.781,0,0,1-.243.257l-.715.658-2.7,2.323-.064.057-.079-.05-5.183-3.081h.15l-4.825,3.124-.071.05-.071-.05c-1.194-.944-2.2-1.73-2.967-2.323l-.815-.665c-.186-.157-.279-.243-.272-.257a1.56,1.56,0,0,1,.322.193c.229.172.515.372.858.615l3.024,2.238h-.143l4.8-3.16.079-.05.079.05h0l5.154,3.153h-.143l2.767-2.245.779-.608A1.38,1.38,0,0,1,221.44,298.952Z" transform="translate(-203.561 -270.134)" fill="#e0e0e0"/>
      <path id="Path_535" data-name="Path 535" d="M549.316,344.709c-3.7.6-5.362,5.147-5,8.886s1.866,7.4,1.43,11.124c-.522,4.74-4.1,8.743-4.518,13.49-.493,5.6,3.467,10.566,4.647,16.056.579,2.674.5,5.5,1.494,8.05a10.058,10.058,0,0,0,19.423-3.474c.079-4.289-2.574-8.343-2.252-12.632.236-3.167,2.095-6.169,1.7-9.293-.479-3.753-3.953-6.434-5.183-10.008s-.043-7.521-.472-11.281c-.758-6.741-4.5-11.438-11.259-10.9" transform="translate(-299.816 -283.208)" fill="#006562"/>
      <path id="Path_536" data-name="Path 536" d="M526.063,390.39c-.636,6.248,2.145,13.583,5.34,18.994a29.782,29.782,0,0,0,13.99,12.153,2.035,2.035,0,0,0,2.016.057,2,2,0,0,0,.508-1.6A30.661,30.661,0,0,0,526.063,390.4" transform="translate(-295.479 -296.24)" fill="#006562"/>
      <g id="Group_26" data-name="Group 26" transform="translate(230.493 94.15)" opacity="0.2">
        <path id="Path_537" data-name="Path 537" d="M526.063,390.39c-.636,6.248,2.145,13.583,5.34,18.994a29.782,29.782,0,0,0,13.99,12.153,2.035,2.035,0,0,0,2.016.057,2,2,0,0,0,.508-1.6A30.661,30.661,0,0,0,526.063,390.4" transform="translate(-525.972 -390.39)"/>
      </g>
      <path id="Path_538" data-name="Path 538" d="M556.492,439.077a1.427,1.427,0,0,1-.179-.343l-.45-1.029c-.372-.886-.937-2.145-1.651-3.753a133.077,133.077,0,0,0-6.2-12,134.964,134.964,0,0,0-7.42-11.3c-1.022-1.394-1.866-2.516-2.459-3.281-.272-.357-.5-.658-.672-.894a1.974,1.974,0,0,1-.222-.322,2.29,2.29,0,0,1,.272.279l.715.851c.629.715,1.5,1.837,2.552,3.217a113.077,113.077,0,0,1,13.661,23.355c.715,1.594,1.215,2.9,1.551,3.8l.386,1.051a2.177,2.177,0,0,1,.115.372Z" transform="translate(-298.692 -300.734)" fill="#263238"/>
      <path id="Path_539" data-name="Path 539" d="M558.529,368.9a3.7,3.7,0,0,1,.071.6c0,.422.071.994.121,1.723.1,1.523.236,3.682.408,6.327.336,5.347.808,12.732,1.387,20.882s1.137,15.534,1.551,20.874c.2,2.645.365,4.8.486,6.327.05.715.086,1.294.114,1.716a3.575,3.575,0,0,1,0,.608s-.036-.207-.086-.6-.107-.994-.186-1.716c-.143-1.523-.343-3.674-.593-6.312-.479-5.34-1.087-12.711-1.659-20.867s-.994-15.541-1.287-20.91c-.122-2.652-.222-4.8-.293-6.334,0-.715-.043-1.3-.057-1.73a3.2,3.2,0,0,1,.021-.586Z" transform="translate(-304.755 -290.113)" fill="#263238"/>
      <path id="Path_540" data-name="Path 540" d="M550.5,439.75h15.649v11.488a7.513,7.513,0,0,1-7.513,7.506h0a7.506,7.506,0,0,1-7.5-7.106Z" transform="translate(-302.473 -310.314)" fill="#263238"/>
    </g>
    <g id="Lamp--inject-34" transform="translate(318.525 179.591)">
      <path id="Path_541" data-name="Path 541" d="M439.212,227.89l37.317,20.667-1.4,2.631L438.14,230.135l1.072-2.245" transform="translate(-422.634 -223.315)" fill="#006562"/>
      <path id="Path_542" data-name="Path 542" d="M437.07,224.114l1.716-2.624,1,.615-1.537,2.645Z" transform="translate(-422.329 -221.49)" fill="#006562"/>
      <path id="Path_543" data-name="Path 543" d="M483,252.23l1.916,1.1-6.248,39.876-2.96.036Z" transform="translate(-433.346 -230.255)" fill="#006562"/>
      <path id="Path_544" data-name="Path 544" d="M463.68,313.643s4.554-4.6,10.645-4.289a13.211,13.211,0,0,1,9.222,4.239Z" transform="translate(-429.916 -246.537)" fill="#006562"/>
      <path id="Path_545" data-name="Path 545" d="M431.227,242.4l-14.777-8.536,4.289-7.385a8.529,8.529,0,0,1,11.653-3.124h0a8.536,8.536,0,0,1,3.124,11.653Z" transform="translate(-416.45 -221.695)" fill="#006562"/>
    </g>
  </g>
</svg>
